<svg width="95" height="50" viewBox="0 0 95 50" fill="none" xmlns="http://www.w3.org/2000/svg">
<path d="M26.2074 3.47869V7.1772C26.046 7.03231 25.8923 6.81116 25.7847 6.47563C25.3389 5.11061 24.5395 5.31373 23.4865 4.91719C22.1568 4.41389 20.4428 4.75705 18.4136 5.94667C14.6474 8.13527 13.3638 6.78066 13.3407 6.78066C13.1025 6.68152 12.8258 6.75778 12.672 6.95605C12.5106 7.15432 12.5106 7.43648 12.6644 7.64237C12.7258 7.72625 14.1632 9.64033 15.9925 9.91485C16.2615 9.95298 16.5228 9.96061 16.7842 9.93011C16.7611 10.1207 16.7611 10.319 16.7995 10.5173C16.8841 10.9672 17.1454 11.3409 17.5297 11.5925C17.9371 11.8823 18.7749 12.195 19.6357 11.8899C19.6895 12.0958 19.7818 12.3093 19.9201 12.5152C20.2814 13.0338 20.8809 13.3236 21.6956 13.3922C21.8032 13.3998 21.9032 13.4075 22.0031 13.4075C22.9639 13.4075 23.9169 13.0414 24.7163 12.3627C25.2082 11.9433 25.6925 11.4705 26.2074 10.8833V14.0338C26.1997 14.0338 26.1997 14.0338 26.1921 14.0414C25.5387 14.2473 25.0007 14.6591 24.7855 15.0785C23.4635 15.742 23.4711 16.8782 23.671 17.3968C23.94 18.0983 24.9546 18.4949 26.1997 18.8914V20.8589C24.6395 21.1334 23.3943 21.4537 23.3405 22.445C23.2867 23.4745 24.5933 23.9244 26.1997 24.3896V26.0978C24.5088 26.3876 23.1022 26.685 23.0407 27.7373C22.9792 28.8278 24.455 29.2701 26.1997 29.7658V33.726C26.1997 34.0387 26.4611 34.2979 26.7762 34.2979C27.0913 34.2979 27.3527 34.0387 27.3527 33.726V30.1013C27.9906 30.3072 28.6209 30.5436 28.7593 30.7343C28.7669 31.0317 28.9975 31.2833 29.305 31.2986C29.3127 31.2986 29.328 31.2986 29.3357 31.2986C29.6355 31.2986 29.8968 31.0622 29.9122 30.7571C29.966 29.7963 28.8207 29.3387 27.3604 28.9041V27.051C28.913 26.7765 30.1581 26.4486 30.2119 25.4648C30.2657 24.443 28.9668 23.9854 27.3604 23.5279V21.8121C29.0436 21.5223 30.4425 21.2249 30.504 20.1802C30.5655 19.0744 29.0974 18.5864 27.3604 18.0526V15.6047C27.9829 15.1624 28.5133 14.5218 28.3673 14.1711C28.2673 13.927 27.8523 13.8355 27.3604 13.8508V10.8223C27.4372 10.9138 27.491 10.9825 27.5064 11.0053C27.9753 11.5315 28.4595 12.0119 28.9514 12.4237C29.7508 13.1024 30.7039 13.4685 31.6646 13.4685C31.7722 13.4685 31.8722 13.4608 31.9798 13.4532C32.7945 13.3846 33.3863 13.0948 33.7553 12.5763C33.9013 12.3704 33.9859 12.1568 34.0397 11.9509C34.9082 12.256 35.7383 11.9433 36.1303 11.6612C36.5377 11.3943 36.799 11.0206 36.8836 10.5707C36.922 10.3724 36.922 10.1741 36.8913 9.98349C37.1526 10.014 37.4139 10.0064 37.6829 9.96824C39.5122 9.69371 40.9496 7.77201 41.0111 7.69575C41.1648 7.48986 41.1802 7.20008 41.0187 7.00181C40.8573 6.80353 40.6037 6.71965 40.3654 6.81879C40.35 6.82641 39.0972 8.22678 35.2541 5.99242C33.2249 4.81043 31.5186 4.45964 30.1812 4.96294C29.1205 5.35948 28.3288 5.16399 27.883 6.51376C27.737 6.96368 27.5448 7.18482 27.3604 7.30684V3.47107L26.2074 3.47869ZM26.2074 28.5685C25.4004 28.3321 24.332 28.0119 24.186 27.8441C24.3551 27.6077 25.385 27.3942 26.2074 27.2493V28.5685ZM26.2074 23.1924C25.4388 22.9712 24.6087 22.7043 24.478 22.5518C24.6241 22.3459 25.4388 22.1553 26.2074 22.0104V23.1924ZM26.2074 17.6865C25.5234 17.4578 24.8547 17.1909 24.7471 16.985C24.724 16.9316 24.578 16.4664 25.2851 16.1004C25.5464 16.1766 25.8616 16.1919 26.2074 16.1156V17.6865ZM29.0744 25.3505C28.9283 25.5563 28.1136 25.747 27.3604 25.8919V24.7175C28.1213 24.9387 28.936 25.1979 29.0744 25.3505ZM29.3665 20.0658C29.1974 20.3022 28.1982 20.5081 27.3604 20.653V19.2422C28.1905 19.5091 29.2358 19.8599 29.3665 20.0658Z" fill="#525866"/>
<path d="M26.7449 4.63647C28.0354 4.63647 29.0815 3.59856 29.0815 2.31824C29.0815 1.03791 28.0354 0 26.7449 0C25.4544 0 24.4083 1.03791 24.4083 2.31824C24.4083 3.59856 25.4544 4.63647 26.7449 4.63647Z" fill="#525866"/>
<path d="M12.8176 27.3247H7.06153V35.0302H0L0 14.7495H7.03185V21.6243H12.7879V14.7495L19.8791 14.7495V35.0302H12.8176L12.8176 27.3247Z" fill="#525866"/>
<path d="M40.8365 28.4991V35.0302H33.8047V14.7495H42.8244C43.8926 14.7495 44.9409 14.8641 45.9695 15.0933C46.9981 15.3033 47.9178 15.6757 48.7288 16.2104C49.5398 16.726 50.1926 17.423 50.6871 18.3015C51.1816 19.1608 51.4288 20.2493 51.4288 21.567C51.4288 22.8274 51.1816 23.8968 50.6871 24.7753C50.2123 25.6537 49.5695 26.3698 48.7585 26.9236C47.9673 27.4774 47.0475 27.8785 45.9992 28.1267C44.9706 28.375 43.9124 28.4991 42.8244 28.4991H40.8365ZM40.8365 20.0488V23.3144H42.3201C42.8541 23.3144 43.3387 23.1902 43.7739 22.942C44.2288 22.6746 44.4563 22.2354 44.4563 21.6243C44.4563 21.2997 44.397 21.0419 44.2783 20.8509C44.1596 20.6408 43.9915 20.4785 43.7739 20.3639C43.5761 20.2493 43.3486 20.173 43.0915 20.1348C42.8343 20.0775 42.5772 20.0488 42.3201 20.0488H40.8365Z" fill="#525866"/>
<path d="M55.8094 14.7495H63.316L71.505 35.0302H63.8204L62.7226 32.0511H56.0468L55.0083 35.0302H47.5314L55.8094 14.7495ZM59.4589 21.8248L57.738 26.8377H61.1501L59.4589 21.8248Z" fill="#525866"/>
<path d="M78.3329 14.7495H85.8395L94.0285 35.0302H86.3439L85.2461 32.0511H78.5703L77.5318 35.0302H70.0549L78.3329 14.7495ZM81.9823 21.8248L80.2615 26.8377H83.6735L81.9823 21.8248Z" fill="#525866"/>
<path d="M0.503418 43.5716C0.503418 42.7254 0.652757 41.9588 0.951436 41.2718C1.25011 40.5848 1.65831 39.9974 2.17602 39.5096C2.69373 39.0217 3.30104 38.6484 3.99796 38.3895C4.70483 38.1207 5.45651 37.9863 6.25298 37.9863C7.06937 37.9863 7.84096 38.1207 8.56774 38.3895C9.29453 38.6484 9.90184 39.0018 10.3897 39.4499L8.20933 42.0782C8.01021 41.8194 7.76131 41.6252 7.46263 41.4958C7.16395 41.3564 6.83043 41.2867 6.46206 41.2867C6.16338 41.2867 5.88461 41.3415 5.62576 41.451C5.3669 41.5506 5.13792 41.6999 4.9388 41.899C4.74963 42.0981 4.60029 42.3421 4.49078 42.6308C4.38126 42.9095 4.3265 43.2232 4.3265 43.5716C4.3265 43.9201 4.38126 44.2337 4.49078 44.5125C4.61025 44.7813 4.76457 45.0152 4.95373 45.2144C5.15285 45.4135 5.38184 45.5678 5.64069 45.6773C5.89955 45.7769 6.17333 45.8266 6.46206 45.8266C6.87025 45.8266 7.21871 45.742 7.50743 45.5728C7.80611 45.4035 8.04008 45.2044 8.20933 44.9754L10.3897 47.5888C9.91179 48.0667 9.32439 48.45 8.62748 48.7388C7.93056 49.0175 7.13906 49.1569 6.25298 49.1569C5.45651 49.1569 4.70483 49.0225 3.99796 48.7537C3.30104 48.4849 2.69373 48.1066 2.17602 47.6187C1.65831 47.1209 1.25011 46.5335 0.951436 45.8565C0.652757 45.1696 0.503418 44.4079 0.503418 43.5716Z" fill="#525866"/>
<path d="M10.7267 43.5119C10.7267 42.6656 10.8761 41.904 11.1748 41.227C11.4734 40.54 11.8816 39.9576 12.3993 39.4797C12.927 39.0018 13.5493 38.6335 14.2661 38.3746C14.9829 38.1158 15.7595 37.9863 16.5958 37.9863C17.4321 37.9863 18.2086 38.1158 18.9255 38.3746C19.6423 38.6335 20.2645 39.0018 20.7922 39.4797C21.3199 39.9576 21.7331 40.54 22.0317 41.227C22.3304 41.904 22.4797 42.6656 22.4797 43.5119C22.4797 44.3581 22.3304 45.1297 22.0317 45.8266C21.7331 46.5236 21.3199 47.1209 20.7922 47.6187C20.2645 48.1066 19.6423 48.4849 18.9255 48.7537C18.2086 49.0225 17.4321 49.1569 16.5958 49.1569C15.7595 49.1569 14.9829 49.0225 14.2661 48.7537C13.5493 48.4849 12.927 48.1066 12.3993 47.6187C11.8816 47.1209 11.4734 46.5236 11.1748 45.8266C10.8761 45.1297 10.7267 44.3581 10.7267 43.5119ZM14.505 43.5119C14.505 43.8603 14.5548 44.1789 14.6544 44.4677C14.7639 44.7564 14.9082 45.0053 15.0875 45.2144C15.2766 45.4234 15.5006 45.5877 15.7595 45.7072C16.0183 45.8167 16.2971 45.8714 16.5958 45.8714C16.8945 45.8714 17.1682 45.8167 17.4171 45.7072C17.676 45.5877 17.9 45.4234 18.0892 45.2144C18.2783 45.0053 18.4227 44.7564 18.5223 44.4677C18.6318 44.1789 18.6865 43.8603 18.6865 43.5119C18.6865 43.1734 18.6318 42.8647 18.5223 42.586C18.4227 42.2973 18.2783 42.0583 18.0892 41.8692C17.9 41.67 17.676 41.5157 17.4171 41.4062C17.1682 41.2967 16.8945 41.2419 16.5958 41.2419C16.2971 41.2419 16.0183 41.2967 15.7595 41.4062C15.5006 41.5157 15.2766 41.67 15.0875 41.8692C14.9082 42.0583 14.7639 42.2973 14.6544 42.586C14.5548 42.8647 14.505 43.1734 14.505 43.5119Z" fill="#525866"/>
<path d="M27.1312 42.8847L27.2955 48.8582H23.9801V38.285H28.6246L30.5361 43.9748H30.6108L32.2685 38.285H37.0623V48.8582H33.6125L33.7171 42.9145L33.6275 42.8996L31.6562 48.8582H29.1473L27.2059 42.8847H27.1312Z" fill="#525866"/>
<path d="M42.5701 45.4533V48.8582H39.0307V38.285H43.5707C44.1083 38.285 44.6359 38.3447 45.1537 38.4642C45.6714 38.5737 46.1343 38.7679 46.5425 39.0466C46.9507 39.3154 47.2793 39.6788 47.5282 40.1368C47.7771 40.5848 47.9015 41.1523 47.9015 41.8393C47.9015 42.4964 47.7771 43.0539 47.5282 43.5119C47.2892 43.9699 46.9656 44.3432 46.5574 44.6319C46.1592 44.9207 45.6963 45.1297 45.1686 45.2592C44.6509 45.3886 44.1182 45.4533 43.5707 45.4533H42.5701ZM42.5701 41.0478V42.7503H43.3168C43.5856 42.7503 43.8295 42.6855 44.0485 42.5561C44.2775 42.4167 44.392 42.1877 44.392 41.8692C44.392 41.6999 44.3622 41.5655 44.3024 41.4659C44.2427 41.3564 44.1581 41.2718 44.0485 41.2121C43.949 41.1523 43.8345 41.1125 43.7051 41.0926C43.5756 41.0627 43.4462 41.0478 43.3168 41.0478H42.5701Z" fill="#525866"/>
<path d="M49.2395 38.285H52.8236V45.8117H56.3331V48.8582H49.2395V38.285Z" fill="#525866"/>
<path d="M57.4356 38.285H61.0198V48.8582H57.4356V38.285Z" fill="#525866"/>
<path d="M65.9341 38.285H69.7124L73.8342 48.8582H69.9663L69.4137 47.3051H66.0536L65.5309 48.8582H61.7675L65.9341 38.285ZM67.771 41.9737L66.9048 44.5871H68.6222L67.771 41.9737Z" fill="#525866"/>
<path d="M74.5863 38.285H78.1257L81.1423 43.6463H81.2021L81.0527 38.285H84.4278V48.8582H80.7989L77.8718 43.8106H77.8121L77.9614 48.8582H74.5863V38.285Z" fill="#525866"/>
<path d="M91.671 48.8582H88.1167V41.2867H85.5182V38.285H94.2695V41.2867H91.671V48.8582Z" fill="#525866"/>
</svg>
