<svg width="48" height="49" viewBox="0 0 48 49" fill="none" xmlns="http://www.w3.org/2000/svg">
<path fill-rule="evenodd" clip-rule="evenodd" d="M23.9716 2.1714C23.9576 2.1717 23.9497 2.17571 23.9486 2.17635C15.5035 7.32726 9.44685 6.50764 6.46762 5.45609C6.41352 5.43699 6.29261 5.43624 6.16896 5.51258C6.11433 5.54631 6.08353 5.58144 6.0698 5.60312C6.06344 5.61315 6.06147 5.61903 6.06104 5.62044C6.06075 5.62139 6.06082 5.6212 6.06082 5.62163V13.7722H4.06082V5.62163C4.06082 4.78819 4.56007 4.15544 5.11828 3.8108C5.67311 3.46825 6.42202 3.31907 7.1333 3.57012C9.54572 4.42161 14.9755 5.30666 22.9072 0.468894C23.5304 0.0887917 24.3244 0.0709765 24.9645 0.42658C33.058 4.92287 38.4855 4.17815 40.863 3.43879C41.5627 3.22121 42.2865 3.3815 42.8232 3.72922C43.3635 4.07927 43.8335 4.70337 43.8335 5.51126V13.7722H41.8335V5.51126C41.8335 5.51051 41.8335 5.51032 41.8331 5.50913C41.8327 5.50755 41.8308 5.50196 41.8251 5.4926C41.8127 5.47247 41.7851 5.43974 41.7357 5.40771C41.6241 5.33542 41.5112 5.33169 41.4569 5.34857C38.5489 6.25293 32.5565 6.93216 23.9932 2.17491C23.9933 2.17495 23.9916 2.17396 23.9875 2.17299C23.9834 2.17199 23.9779 2.17127 23.9716 2.1714ZM6.06082 26.9434V32.925C6.06082 35.3454 7.40438 37.5889 9.59827 38.7612L23.948 46.411L38.3465 38.7628C40.4888 37.5909 41.8335 35.3463 41.8335 32.925V26.9434H43.8335V32.925C43.8335 36.0913 42.0771 39.0048 39.3 40.5209L39.2899 40.5264L39.2899 40.5263L24.8862 48.1773C24.2986 48.4894 23.5943 48.4889 23.0071 48.1759L8.65657 40.5256L8.65572 40.5252C5.8204 39.0102 4.06082 36.0942 4.06082 32.925V26.9434H6.06082Z" fill="#525866"/>
<path d="M23.8936 3.39478C28.7623 5.92082 33.5775 7.37195 38.2857 6.99573L40.5863 6.78075V13.7721H7.09387V6.99573L9.44797 7.21071C14.2632 7.69443 19.0784 6.1358 23.8936 3.39478Z" fill="#525866"/>
<path fill-rule="evenodd" clip-rule="evenodd" d="M47.831 14.2786L46.3528 20.5845L47.882 26.836C47.933 27.1622 47.831 27.5427 47.6781 27.7602C47.5252 27.9776 47.2194 28.1407 46.9135 28.1407H1.03784C0.732007 28.1407 0.477142 28.032 0.27325 27.7602C0.0693579 27.4884 0.0183849 27.1622 0.0693579 26.836L1.4966 20.5845L0.0183849 14.2786C-0.0325881 13.9524 0.0183849 13.5719 0.222277 13.3544C0.426169 13.137 0.681034 12.9739 0.986872 12.9739H46.8626C47.1684 12.9739 47.4233 13.0826 47.6272 13.3544C47.831 13.6262 47.882 13.9524 47.831 14.2786ZM6.25353 25.9184C6.65585 25.9951 7.06296 26.0334 7.47486 26.0334C7.99213 26.0334 8.49981 25.9567 8.99793 25.8035C9.49604 25.6598 9.94146 25.4395 10.3342 25.1425C10.7365 24.836 11.0574 24.4576 11.2969 24.0074C11.546 23.5476 11.6705 23.0112 11.6705 22.3981C11.6705 21.8713 11.5603 21.4306 11.34 21.0762C11.1197 20.7218 10.8371 20.4248 10.4923 20.1854C10.157 19.9363 9.7882 19.7352 9.38588 19.5819C8.98356 19.4286 8.6004 19.2945 8.23639 19.1796C7.88197 19.0646 7.62333 18.9688 7.46049 18.8922C7.30722 18.8156 7.23059 18.7006 7.23059 18.5473C7.23059 18.3845 7.30722 18.2696 7.46049 18.2025C7.61375 18.1259 7.81491 18.0876 8.06397 18.0876C8.33218 18.0876 8.63392 18.1642 8.96919 18.3174C9.30445 18.4611 9.58704 18.6767 9.81693 18.964L11.9435 16.7944C11.4166 16.3058 10.8036 15.9323 10.1043 15.6736C9.41461 15.415 8.7345 15.2857 8.06397 15.2857C7.56586 15.2857 7.06296 15.3479 6.55527 15.4725C6.04758 15.597 5.58778 15.8029 5.17588 16.0903C4.77356 16.3681 4.44309 16.7273 4.18445 17.168C3.92582 17.6086 3.7965 18.145 3.7965 18.7772C3.7965 19.2275 3.86834 19.6154 4.01203 19.9411C4.15571 20.2572 4.34729 20.5302 4.58677 20.7601C4.83583 20.99 5.11841 21.1864 5.43452 21.3492C5.75063 21.5025 6.0811 21.6366 6.42595 21.7515C6.78037 21.8665 7.07254 21.9671 7.30243 22.0533C7.54191 22.1395 7.7287 22.2209 7.86281 22.2975C7.99691 22.3646 8.08792 22.4317 8.13581 22.4987C8.19328 22.5658 8.22202 22.6472 8.22202 22.743C8.22202 22.925 8.1406 23.0495 7.97776 23.1166C7.82449 23.1836 7.65207 23.2171 7.46049 23.2171C7.03901 23.2171 6.62711 23.1166 6.22479 22.9154C5.83205 22.7142 5.51594 22.4843 5.27646 22.2257L3.19302 24.4959C3.45165 24.7258 3.74381 24.9366 4.0695 25.1282C4.39519 25.3102 4.74004 25.473 5.10404 25.6167C5.47762 25.7508 5.86079 25.8514 6.25353 25.9184ZM12.1825 18.4037C11.8951 19.055 11.7514 19.7878 11.7514 20.6021C11.7514 21.4163 11.8951 22.1587 12.1825 22.8292C12.4698 23.4997 12.8626 24.0745 13.3607 24.5534C13.8684 25.0228 14.4671 25.3868 15.1568 25.6454C15.8465 25.9041 16.5936 26.0334 17.3983 26.0334C18.2029 26.0334 18.9501 25.9041 19.6398 25.6454C20.3294 25.3868 20.9281 25.0228 21.4358 24.5534C21.9435 24.0745 22.3411 23.4997 22.6284 22.8292C22.9158 22.1587 23.0595 21.4163 23.0595 20.6021C23.0595 19.7878 22.9158 19.055 22.6284 18.4037C22.3411 17.7427 21.9435 17.1823 21.4358 16.7225C20.9281 16.2627 20.3294 15.9083 19.6398 15.6593C18.9501 15.4102 18.2029 15.2857 17.3983 15.2857C16.5936 15.2857 15.8465 15.4102 15.1568 15.6593C14.4671 15.9083 13.8684 16.2627 13.3607 16.7225C12.8626 17.1823 12.4698 17.7427 12.1825 18.4037ZM15.5303 21.5216C15.4346 21.2439 15.3867 20.9373 15.3867 20.6021C15.3867 20.2764 15.4346 19.9794 15.5303 19.7112C15.6357 19.4334 15.7746 19.2035 15.947 19.0215C16.129 18.8299 16.3446 18.6815 16.5936 18.5761C16.8427 18.4707 17.1109 18.418 17.3983 18.418C17.6856 18.418 17.9491 18.4707 18.1885 18.5761C18.4376 18.6815 18.6531 18.8299 18.8351 19.0215C19.0171 19.2035 19.156 19.4334 19.2518 19.7112C19.3572 19.9794 19.4099 20.2764 19.4099 20.6021C19.4099 20.9373 19.3572 21.2439 19.2518 21.5216C19.156 21.7994 19.0171 22.0389 18.8351 22.2401C18.6531 22.4412 18.4376 22.5993 18.1885 22.7142C17.9491 22.8196 17.6856 22.8723 17.3983 22.8723C17.1109 22.8723 16.8427 22.8196 16.5936 22.7142C16.3446 22.5993 16.129 22.4412 15.947 22.2401C15.7746 22.0389 15.6357 21.7994 15.5303 21.5216ZM23.245 20.6595C23.245 19.8453 23.3887 19.1077 23.6761 18.4468C23.9635 17.7858 24.3562 17.2206 24.8543 16.7513C25.3524 16.2819 25.9367 15.9227 26.6073 15.6736C27.2874 15.415 28.0106 15.2857 28.7769 15.2857C29.5624 15.2857 30.3048 15.415 31.0041 15.6736C31.7033 15.9227 32.2877 16.2627 32.757 16.6938L30.6592 19.2227C30.4676 18.9736 30.2282 18.7868 29.9408 18.6623C29.6534 18.5282 29.3325 18.4611 28.9781 18.4611C28.6907 18.4611 28.4225 18.5138 28.1734 18.6192C27.9244 18.715 27.7041 18.8587 27.5125 19.0502C27.3305 19.2418 27.1868 19.4765 27.0814 19.7543C26.9761 20.0225 26.9234 20.3243 26.9234 20.6595C26.9234 20.9948 26.9761 21.2965 27.0814 21.5648C27.1964 21.8234 27.3449 22.0485 27.5269 22.2401C27.7184 22.4317 27.9388 22.5801 28.1878 22.6855C28.4369 22.7813 28.7003 22.8292 28.9781 22.8292C29.3708 22.8292 29.7061 22.7478 29.9839 22.5849C30.2713 22.4221 30.4964 22.2305 30.6592 22.0102L32.757 24.5247C32.2972 24.9845 31.7321 25.3533 31.0615 25.6311C30.391 25.8993 29.6295 26.0334 28.7769 26.0334C28.0106 26.0334 27.2874 25.9041 26.6073 25.6454C25.9367 25.3868 25.3524 25.0228 24.8543 24.5534C24.3562 24.0745 23.9635 23.5093 23.6761 22.8579C23.3887 22.197 23.245 21.4642 23.245 20.6595ZM40.1307 19.4526C40.0253 19.6058 39.8912 19.7447 39.7283 19.8693L35.7051 23.0878V25.746H43.9527V22.8867H40.4468L41.9411 21.8234C42.1997 21.6414 42.444 21.4498 42.6739 21.2486C42.9134 21.0475 43.1241 20.8224 43.3061 20.5733C43.4977 20.3243 43.6462 20.0417 43.7515 19.7256C43.8665 19.3999 43.924 19.0263 43.924 18.6048C43.924 18.0109 43.8042 17.5032 43.5648 17.0818C43.3253 16.6603 43.014 16.3202 42.6308 16.0616C42.2476 15.7934 41.807 15.597 41.3089 15.4725C40.8204 15.3479 40.327 15.2857 39.8289 15.2857C39.2829 15.2857 38.7513 15.3623 38.234 15.5156C37.7263 15.6593 37.2617 15.8892 36.8403 16.2053C36.4284 16.5214 36.0835 16.9189 35.8057 17.3979C35.5279 17.8768 35.3555 18.4468 35.2885 19.1077L38.5501 19.4813C38.5693 19.1077 38.6699 18.8108 38.8519 18.5905C39.0339 18.3701 39.2638 18.26 39.5416 18.26C39.8002 18.26 39.987 18.3318 40.1019 18.4755C40.2265 18.6192 40.2887 18.7868 40.2887 18.9784C40.2887 19.1412 40.236 19.2993 40.1307 19.4526Z" fill="#525866"/>
<path fill-rule="evenodd" clip-rule="evenodd" d="M9.983 37.8159C8.21742 36.8485 7.09387 35.0212 7.09387 32.9788V27.3425H40.5863V32.9251C40.5863 34.9674 39.4628 36.7948 37.6972 37.7622L23.8401 45.1791L9.983 37.8159ZM13.7555 36.6448H11.8366V32.5572H10.4338V30.9366H14.724H15.1583H17.038L17.9409 32.6136L18.8036 30.9366H21.0611L18.7955 34.3067V36.6448H16.8767V34.3067L15.1583 31.6165V32.5572H13.7555V36.6448ZM23.1132 36.6448V34.8066H23.6534C23.949 34.8066 24.2365 34.7716 24.516 34.7017C24.8009 34.6319 25.0508 34.519 25.2658 34.3631C25.4862 34.2072 25.6609 34.0057 25.7899 33.7584C25.9243 33.5112 25.9914 33.2102 25.9914 32.8555C25.9914 32.4846 25.9243 32.1782 25.7899 31.9363C25.6555 31.6891 25.4781 31.4929 25.2578 31.3478C25.0374 31.1973 24.7875 31.0925 24.508 31.0334C24.2285 30.9689 23.9436 30.9366 23.6534 30.9366H21.2024V36.6448H23.1132ZM23.1132 33.3473V32.4282H23.5163C23.5862 32.4282 23.656 32.4362 23.7259 32.4523C23.7958 32.4631 23.8576 32.4846 23.9114 32.5168C23.9705 32.5491 24.0162 32.5948 24.0484 32.6539C24.0807 32.7076 24.0968 32.7802 24.0968 32.8716C24.0968 33.0436 24.035 33.1672 23.9114 33.2425C23.7931 33.3123 23.6614 33.3473 23.5163 33.3473H23.1132ZM26.5142 30.9366H30.4406V32.533H28.3202V33.0248H30.3116V34.5163H28.3202V35.0484H30.5777V36.6448H26.5142V30.9366ZM34.8408 32.9302C34.7475 33.0368 34.6553 33.131 34.565 33.2128L32.5 35.0675V36.6381H36.6321V35.0943H34.8956L35.82 34.299L35.8249 34.2946C35.9279 34.2019 36.0237 34.1061 36.1124 34.0071C36.208 33.9002 36.2902 33.7842 36.3584 33.6595C36.4334 33.5265 36.4902 33.3835 36.5296 33.2317L36.5302 33.2291C36.5705 33.0681 36.5892 32.8955 36.5892 32.7131C36.5892 32.4278 36.5409 32.1637 36.4354 31.9279C36.3377 31.6991 36.1971 31.5038 36.0122 31.3482C35.8321 31.1918 35.6223 31.0778 35.3872 31.0046C35.1548 30.9275 34.9091 30.8901 34.6518 30.8901C34.3776 30.8901 34.1168 30.927 33.8712 31.0031C33.6269 31.0756 33.4078 31.1886 33.2178 31.344C33.025 31.5017 32.8727 31.6986 32.7598 31.9296C32.6428 32.1641 32.5808 32.432 32.5648 32.7253L32.5488 33.0193L34.2124 33.1414L34.2359 32.8439C34.2455 32.7225 34.2843 32.634 34.3452 32.564C34.3922 32.5142 34.4631 32.4768 34.5947 32.4768C34.6964 32.4768 34.7743 32.5056 34.8422 32.5604L34.8479 32.5648C34.8901 32.5972 34.9167 32.6385 34.9167 32.7274C34.9167 32.8075 34.8928 32.8707 34.8408 32.9302Z" fill="#525866"/>
</svg>
